<svg class="thumb" width="1000" height="1000" viewBox="0,0,600,600" xmlns="http://www.w3.org/2000/svg" xmlns:inkscape="http://www.inkscape.org/namespaces/inkscape" xmlns:sodipodi="http://sodipodi.sourceforge.net/DTD/sodipodi-0.dtd" xmlns:xlink="http://www.w3.org/1999/xlink" xmlns:ns1="http://www.inkscape.org/namespaces/inkscape" xmlns:sketch="http://www.bohemiancoding.com/sketch/ns">
  <defs></defs>
  <g transform="matrix(0.8618,0,0,0.8618,-34.7798,203.8617)">
    <g transform="matrix(2.9777,-0.052,0.052,2.9777,111.5919,29.5945)">
      <svg width="16.391521320410554" height="16.381999999999998" viewBox="16.799239339794724,-1.3010000000000002,16.391521320410554,16.381999999999998">
        <defs></defs>
        <g></g>
        <g></g>
        <g></g>
        <g></g>
        <g></g>
        <g></g>
        <g>
          <circle fill="none" cx="24.995" cy="6.89" r="3.191" stroke="none" style=""></circle>
        </g>
      </svg>
    </g>
    <g transform="matrix(2.9777,-0.052,0.052,2.9777,157.5919,104.5945)">
      <svg width="16.383500077982838" height="16.36548071116829" viewBox="31.726697807032664,24.192,16.383500077982838,16.36548071116829">
        <defs></defs>
        <g></g>
        <g></g>
        <g></g>
        <g></g>
        <g></g>
        <g></g>
        <g>
          <path fill="none" d="M41.483,29.601c-0.474-0.265-1.015-0.409-1.557-0.409c-1.156,0-2.222,0.628-2.788,1.633   c-0.419,0.741-0.522,1.602-0.29,2.424c0.231,0.82,0.764,1.501,1.509,1.922c1.488,0.839,3.515,0.258,4.344-1.221   C43.564,32.41,43.017,30.461,41.483,29.601z" stroke="none" style=""></path>
        </g>
      </svg>
    </g>
    <g transform="matrix(2.9777,-0.052,0.052,2.9777,156.5919,54.5945)">
      <svg width="16.387733030101266" height="16.381999999999998" viewBox="31.73269780703267,7.436999999999999,16.387733030101266,16.381999999999998">
        <defs></defs>
        <g></g>
        <g></g>
        <g></g>
        <g></g>
        <g></g>
        <g></g>
        <g>
          <path fill="none" d="M39.921,12.437c-0.541,0-1.08,0.14-1.557,0.409c-0.744,0.414-1.279,1.097-1.51,1.915   c-0.232,0.82-0.129,1.685,0.29,2.426c0.565,1.005,1.632,1.632,2.787,1.632c0.541,0,1.081-0.144,1.559-0.411   c0.745-0.416,1.277-1.097,1.509-1.919c0.232-0.821,0.129-1.681-0.287-2.425C42.143,13.063,41.077,12.437,39.921,12.437z" stroke="none" style=""></path>
        </g>
      </svg>
    </g>
    <g transform="matrix(2.9777,-0.052,0.052,2.9777,113.5919,131.5945)">
      <svg width="16.389518272894044" height="16.380000000000003" viewBox="16.80024086355298,32.928000000000004,16.389518272894044,16.380000000000003">
        <defs></defs>
        <g></g>
        <g></g>
        <g></g>
        <g></g>
        <g></g>
        <g></g>
        <g>
          <circle fill="none" cx="24.995" cy="41.118" r="3.19" stroke="none" style=""></circle>
        </g>
      </svg>
    </g>
    <g transform="matrix(2.9777,-0.052,0.052,2.9777,67.5924,56.5945)">
      <svg width="16.37924407510215" height="16.382" viewBox="1.8839566756362434,7.431999999999999,16.37924407510215,16.382">
        <defs></defs>
        <g></g>
        <g></g>
        <g></g>
        <g></g>
        <g></g>
        <g></g>
        <g>
          <path fill="none" d="M8.514,18.408c0.474,0.266,1.013,0.406,1.556,0.406l0,0c1.153,0,2.22-0.624,2.785-1.628   c0.862-1.534,0.314-3.485-1.222-4.344c-0.477-0.269-1.015-0.41-1.556-0.41c-1.152,0-2.223,0.625-2.788,1.629   C6.432,15.592,6.979,17.542,8.514,18.408z" stroke="none" style=""></path>
        </g>
      </svg>
    </g>
    <g transform="matrix(2.9777,-0.052,0.052,2.9777,68.5924,106.5945)">
      <svg width="16.386512940721065" height="16.381" viewBox="1.8809361674064435,24.189,16.386512940721065,16.381">
        <defs></defs>
        <g></g>
        <g></g>
        <g></g>
        <g></g>
        <g></g>
        <g></g>
        <g>
          <path fill="none" d="M10.065,29.189c-0.541,0-1.079,0.144-1.554,0.409c-0.743,0.414-1.279,1.096-1.509,1.918   C6.77,32.34,6.874,33.2,7.292,33.944c0.562,1.005,1.633,1.626,2.792,1.626c0.541,0,1.079-0.138,1.555-0.405   c1.534-0.861,2.081-2.809,1.222-4.345C12.292,29.816,11.223,29.189,10.065,29.189z" stroke="none" style=""></path>
        </g>
      </svg>
    </g>
    <g transform="matrix(0.9066,0.482,-0.482,0.9066,127.2085,66.3247)">
      <svg width="51.81995029640821" height="56.191" viewBox="-0.9109068233559796,-4.09,51.81995029640821,56.191">
        <defs>
          <linearGradient x1="0" y1="0.5" x2="1" y2="0.5" id="linearGradientSkanogvojm">
            <stop offset="47.87%" stop-color="#e78200"></stop>
            <stop offset="100%" stop-color="#e78200"></stop>
          </linearGradient>
        </defs>
        <g></g>
        <g></g>
        <g></g>
        <g></g>
        <g></g>
        <g></g>
        <g>
          <path fill="url('#linearGradientSkanogvojm')" d="M4.858,12.695c1.562-2.771,5.361-3.852,8.144-2.287c2.875,1.617,3.899,5.27,2.286,8.145   c-1.057,1.884-3.059,3.054-5.217,3.054l0,0c-1.019,0-2.031-0.264-2.924-0.764C4.269,19.222,3.242,15.566,4.858,12.695z    M13.004,37.602c-0.895,0.497-1.903,0.76-2.921,0.76c-2.164,0-4.165-1.17-5.226-3.053c-0.782-1.395-0.975-3.008-0.541-4.547   c0.431-1.538,1.436-2.815,2.828-3.598c2.791-1.562,6.591-0.48,8.145,2.291C16.904,32.329,15.877,35.985,13.004,37.602z    M24.995,47.101c-3.297,0-5.981-2.682-5.981-5.98c0-3.298,2.685-5.982,5.981-5.982c3.3,0,5.983,2.685,5.983,5.982   C30.979,44.419,28.295,47.101,24.995,47.101z M24.995,12.872c-3.297,0-5.981-2.683-5.981-5.981c0-3.3,2.685-5.981,5.981-5.981   c3.3,0,5.983,2.681,5.983,5.981C30.979,10.189,28.295,12.872,24.995,12.872z M45.134,35.311c-1.058,1.885-3.058,3.054-5.221,3.054   c-1.023,0-2.032-0.266-2.928-0.767c-1.392-0.782-2.396-2.062-2.826-3.6c-0.434-1.539-0.235-3.152,0.544-4.544   c1.556-2.771,5.354-3.856,8.144-2.29C45.729,28.785,46.752,32.438,45.134,35.311z M45.686,17.251   c-0.433,1.537-1.441,2.812-2.834,3.594c-0.89,0.502-1.904,0.767-2.923,0.767c-2.159,0-4.162-1.17-5.223-3.056   c-0.779-1.392-0.975-3.007-0.541-4.543c0.433-1.537,1.441-2.816,2.833-3.598c2.793-1.559,6.591-0.48,8.146,2.289   C45.924,14.098,46.113,15.714,45.686,17.251z" stroke="none" style=""></path>
        </g>
      </svg>
    </g>
    <g transform="matrix(2.9777,-0.052,0.052,2.9777,104.0178,22.2802)">
      <svg width="21.964000279342976" height="21.961999999999996" viewBox="14.014000000000003,-4.091,21.964000279342976,21.961999999999996">
        <defs>
          <linearGradient x1="0" y1="0.5" x2="1" y2="0.5" id="linearGradientSkanogvojs">
            <stop offset="0%" stop-color="#7e7e7e"></stop>
            <stop offset="100%" stop-color="#7e7e7e"></stop>
          </linearGradient>
        </defs>
        <g></g>
        <g></g>
        <g></g>
        <g></g>
        <g></g>
        <g></g>
        <g>
          <path fill="url('#linearGradientSkanogvojs')" d="M24.995,0.909c-3.297,0-5.981,2.681-5.981,5.981c0,3.299,2.685,5.981,5.981,5.981   c3.3,0,5.983-2.683,5.983-5.981C30.979,3.59,28.295,0.909,24.995,0.909z M24.995,10.081c-1.757,0-3.19-1.43-3.19-3.19   c0-1.758,1.434-3.191,3.19-3.191c1.759,0,3.191,1.433,3.191,3.191C28.187,8.651,26.755,10.081,24.995,10.081z" stroke="none" style=""></path>
        </g>
      </svg>
    </g>
    <g transform="matrix(2.9777,-0.052,0.052,2.9777,106.0178,124.2802)">
      <svg width="21.964000279342976" height="21.961999999999996" viewBox="14.014000000000003,30.137999999999998,21.964000279342976,21.961999999999996">
        <defs>
          <linearGradient x1="0" y1="0.5" x2="1" y2="0.5" id="linearGradientSkanogvojy">
            <stop offset="0%" stop-color="#7e7e7e"></stop>
            <stop offset="100%" stop-color="#7e7e7e"></stop>
          </linearGradient>
        </defs>
        <g></g>
        <g></g>
        <g></g>
        <g></g>
        <g></g>
        <g></g>
        <g>
          <path fill="url('#linearGradientSkanogvojy')" d="M24.995,35.138c-3.297,0-5.981,2.685-5.981,5.982c0,3.299,2.685,5.98,5.981,5.98   c3.3,0,5.983-2.682,5.983-5.98C30.979,37.822,28.295,35.138,24.995,35.138z M24.995,44.308c-1.757,0-3.19-1.43-3.19-3.188   c0-1.76,1.434-3.192,3.19-3.192c1.759,0,3.191,1.433,3.191,3.192C28.187,42.878,26.755,44.308,24.995,44.308z" stroke="none" style=""></path>
        </g>
      </svg>
    </g>
    <g transform="matrix(2.9777,-0.052,0.052,2.9777,60.0183,49.2802)">
      <svg width="21.960571578243655" height="21.918729574123432" viewBox="-0.9074255641533826,4.6842704258765675,21.960571578243655,21.918729574123432">
        <defs>
          <linearGradient x1="0" y1="0.5" x2="1" y2="0.5" id="linearGradientSkanogvoj14">
            <stop offset="0%" stop-color="#7e7e7e"></stop>
            <stop offset="100%" stop-color="#7e7e7e"></stop>
          </linearGradient>
        </defs>
        <g></g>
        <g></g>
        <g></g>
        <g></g>
        <g></g>
        <g></g>
        <g>
          <path fill="url('#linearGradientSkanogvoj14')" d="M7.146,20.84c0.894,0.503,1.905,0.763,2.924,0.763l0,0c2.159,0,4.16-1.167,5.217-3.051   c1.617-2.877,0.59-6.53-2.286-8.145C10.219,8.84,6.417,9.92,4.858,12.692C3.242,15.566,4.269,19.222,7.146,20.84z M7.292,14.061   c0.567-1.004,1.633-1.629,2.789-1.629c0.541,0,1.079,0.141,1.555,0.41c1.534,0.863,2.081,2.81,1.221,4.344   c-0.564,1.005-1.63,1.628-2.785,1.628l0,0c-0.541,0-1.08-0.141-1.554-0.406C6.979,17.542,6.432,15.592,7.292,14.061z" stroke="none" style=""></path>
        </g>
      </svg>
    </g>
    <g transform="matrix(2.9777,-0.052,0.052,2.9777,150.0178,97.2802)">
      <svg width="21.966623704264364" height="21.92290477048988" viewBox="28.936646826552376,21.445095229510123,21.966623704264364,21.92290477048988">
        <defs>
          <linearGradient x1="0" y1="0.5" x2="1" y2="0.5" id="linearGradientSkanogvoj1a">
            <stop offset="0%" stop-color="#7e7e7e"></stop>
            <stop offset="100%" stop-color="#7e7e7e"></stop>
          </linearGradient>
        </defs>
        <g></g>
        <g></g>
        <g></g>
        <g></g>
        <g></g>
        <g></g>
        <g>
          <path fill="url('#linearGradientSkanogvoj1a')" d="M42.85,27.167c-2.793-1.569-6.591-0.479-8.144,2.288c-0.779,1.396-0.978,3.004-0.544,4.544   c0.431,1.542,1.438,2.819,2.827,3.603c0.895,0.502,1.903,0.766,2.927,0.766c2.162,0,4.162-1.17,5.223-3.053   C46.752,32.438,45.729,28.785,42.85,27.167z M42.701,33.946c-0.829,1.48-2.855,2.061-4.344,1.221   c-0.742-0.418-1.277-1.102-1.509-1.921c-0.232-0.82-0.129-1.684,0.29-2.426c0.563-1.004,1.629-1.631,2.788-1.631   c0.539,0,1.08,0.144,1.557,0.409C43.017,30.461,43.564,32.41,42.701,33.946z" stroke="none" style=""></path>
        </g>
      </svg>
    </g>
    <g transform="matrix(2.9777,-0.052,0.052,2.9777,149.0178,48.2802)">
      <svg width="21.972052872128153" height="21.91582118720742" viewBox="28.938807987908895,4.693178812792581,21.972052872128153,21.91582118720742">
        <defs>
          <linearGradient x1="0" y1="0.5" x2="1" y2="0.5" id="linearGradientSkanogvoj1g">
            <stop offset="0%" stop-color="#7e7e7e"></stop>
            <stop offset="100%" stop-color="#7e7e7e"></stop>
          </linearGradient>
        </defs>
        <g></g>
        <g></g>
        <g></g>
        <g></g>
        <g></g>
        <g></g>
        <g>
          <path fill="url('#linearGradientSkanogvoj1g')" d="M36.998,10.413c-1.392,0.781-2.397,2.06-2.833,3.596c-0.434,1.539-0.238,3.15,0.541,4.544   c1.058,1.887,3.061,3.056,5.223,3.056c1.019,0,2.033-0.264,2.923-0.766c1.393-0.78,2.396-2.058,2.834-3.596   c0.431-1.539,0.238-3.154-0.541-4.545C43.589,9.931,39.788,8.85,36.998,10.413z M42.996,16.493c-0.23,0.817-0.764,1.5-1.51,1.917   c-0.477,0.269-1.018,0.41-1.558,0.41c-1.155,0-2.222-0.624-2.787-1.629c-0.416-0.743-0.52-1.606-0.29-2.428   c0.23-0.817,0.767-1.499,1.509-1.916c0.474-0.267,1.014-0.409,1.559-0.409c1.155,0,2.224,0.628,2.787,1.627   C43.125,14.811,43.229,15.671,42.996,16.493z" stroke="none" style=""></path>
        </g>
      </svg>
    </g>
    <g transform="matrix(2.9777,-0.052,0.052,2.9777,61.0183,99.2802)">
      <svg width="21.965305483615047" height="21.91688166376193" viewBox="-0.9091456343559203,21.445118336238064,21.965305483615047,21.91688166376193">
        <defs>
          <linearGradient x1="0" y1="0.5" x2="1" y2="0.5" id="linearGradientSkanogvoj1m">
            <stop offset="0%" stop-color="#7e7e7e"></stop>
            <stop offset="100%" stop-color="#7e7e7e"></stop>
          </linearGradient>
        </defs>
        <g></g>
        <g></g>
        <g></g>
        <g></g>
        <g></g>
        <g></g>
        <g>
          <path fill="url('#linearGradientSkanogvoj1m')" d="M7.146,27.164c-1.392,0.782-2.397,2.06-2.828,3.598c-0.434,1.539-0.242,3.153,0.541,4.547   c1.058,1.883,3.058,3.053,5.226,3.053c1.018,0,2.026-0.263,2.921-0.76c2.875-1.616,3.899-5.272,2.286-8.146   C13.736,26.684,9.937,25.602,7.146,27.164z M11.636,35.165c-0.477,0.268-1.015,0.405-1.555,0.405c-1.155,0-2.226-0.625-2.792-1.626   c-0.416-0.744-0.52-1.605-0.291-2.428c0.229-0.82,0.764-1.504,1.511-1.918c0.474-0.267,1.011-0.409,1.552-0.409   c1.158,0,2.226,0.627,2.793,1.631C13.717,32.356,13.169,34.304,11.636,35.165z" stroke="none" style=""></path>
        </g>
      </svg>
    </g>
    <g transform="matrix(2.3331,0,0,2.3331,562.1681,62.3391)">
      <svg width="52.400000000000006" height="52.400000000000006" viewBox="22.399999999999995,30,52.400000000000006,52.400000000000006">
        <defs>
          <linearGradient x1="0" y1="0.5" x2="1" y2="0.5" id="linearGradientSkanogvoj1s">
            <stop offset="0%" stop-color="#7e7e7e"></stop>
            <stop offset="100%" stop-color="#7e7e7e"></stop>
          </linearGradient>
        </defs>
        <g></g>
        <g></g>
        <g></g>
        <g></g>
        <g></g>
        <g></g>
        <g>
          <path d="M48.6,77.4c11.7,0,21.2-9.5,21.2-21.2c0-11.7-9.5-21.2-21.2-21.2c-11.7,0-21.2,9.5-21.2,21.2   C27.4,67.9,36.9,77.4,48.6,77.4z M48.6,37c10.6,0,19.2,8.6,19.2,19.2c0,10.6-8.6,19.2-19.2,19.2c-10.6,0-19.2-8.6-19.2-19.2   C29.4,45.6,38,37,48.6,37z" stroke="none" fill="url('#linearGradientSkanogvoj1s')" style=""></path>
        </g>
      </svg>
    </g>
    <g transform="matrix(2.3331,0,0,2.3331,643.831,67.6689)">
      <svg width="18.4" height="20.099999999999994" viewBox="57.4,32,18.4,20.099999999999994">
        <defs>
          <linearGradient x1="0" y1="0.5" x2="1" y2="0.5" id="linearGradientSkanogvoj1y">
            <stop offset="0%" stop-color="#7e7e7e"></stop>
            <stop offset="100%" stop-color="#7e7e7e"></stop>
          </linearGradient>
        </defs>
        <g></g>
        <g></g>
        <g></g>
        <g></g>
        <g></g>
        <g></g>
        <g>
          <path d="M63.3,37l-0.9,1.8c3.2,1.7,5.6,4.8,6.4,8.3l2-0.4C69.9,42.6,67.1,39,63.3,37z" stroke="none" fill="url('#linearGradientSkanogvoj1y')" style=""></path>
        </g>
      </svg>
    </g>
    <g transform="matrix(2.3331,0,0,2.3331,648.9976,62.3351)">
      <svg width="17.30000000000001" height="16.4" viewBox="60.3,30.299999999999997,17.30000000000001,16.4">
        <defs>
          <linearGradient x1="0" y1="0.5" x2="1" y2="0.5" id="linearGradientSkanogvoj24">
            <stop offset="0%" stop-color="#7e7e7e"></stop>
            <stop offset="100%" stop-color="#7e7e7e"></stop>
          </linearGradient>
        </defs>
        <g></g>
        <g></g>
        <g></g>
        <g></g>
        <g></g>
        <g></g>
        <g>
          <path d="M70,37.3c-1.2-0.9-2.6-1.5-3.9-2l-0.8,1.9c1.2,0.5,2.4,1,3.4,1.8c0.7,0.6,1.7,1.5,2,2.7l1.9-0.5C72.2,39.3,71,38,70,37.3z" stroke="none" fill="url('#linearGradientSkanogvoj24')" style=""></path>
        </g>
      </svg>
    </g>
    <g transform="matrix(2.3331,0,0,2.3331,655.1641,56.8348)">
      <svg width="16.799999999999997" height="13.114133117519067" viewBox="61.599999999999994,27.58586688248093,16.799999999999997,13.114133117519067">
        <defs>
          <linearGradient x1="0" y1="0.5" x2="1" y2="0.5" id="linearGradientSkanogvoj2a">
            <stop offset="0%" stop-color="#7e7e7e"></stop>
            <stop offset="100%" stop-color="#7e7e7e"></stop>
          </linearGradient>
        </defs>
        <g></g>
        <g></g>
        <g></g>
        <g></g>
        <g></g>
        <g></g>
        <g>
          <path d="M66.6,32.9l0.6,1.9c1.7-0.5,3.6-0.2,5,0.9l1.2-1.6C71.4,32.7,68.8,32.2,66.6,32.9z" stroke="none" fill="url('#linearGradientSkanogvoj2a')" style=""></path>
        </g>
      </svg>
    </g>
    <g transform="matrix(2.3331,0,0,2.3331,582.831,108.6682)">
      <svg width="18" height="14" viewBox="31,50.4,18,14">
        <defs>
          <linearGradient x1="0" y1="0.5" x2="1" y2="0.5" id="linearGradientSkanogvoj2g">
            <stop offset="0%" stop-color="#7e7e7e"></stop>
            <stop offset="100%" stop-color="#7e7e7e"></stop>
          </linearGradient>
        </defs>
        <g></g>
        <g></g>
        <g></g>
        <g></g>
        <g></g>
        <g></g>
        <g>
          <path d="M40,59.4c2,0,4-1.4,4-3.9h-2c0,1.4-1.1,1.9-2,1.9c-0.5,0-1-0.2-1.4-0.5C38.2,56.5,38,56,38,55.4h-2c0,1.5,0.7,2.4,1.3,3   C38,59,39,59.4,40,59.4z" stroke="none" fill="url('#linearGradientSkanogvoj2g')" style=""></path>
        </g>
      </svg>
    </g>
    <g transform="matrix(2.3331,0,0,2.3331,601.831,108.6682)">
      <svg width="18" height="14" viewBox="39,50.4,18,14">
        <defs>
          <linearGradient x1="0" y1="0.5" x2="1" y2="0.5" id="linearGradientSkanogvoj2m">
            <stop offset="0%" stop-color="#7e7e7e"></stop>
            <stop offset="100%" stop-color="#7e7e7e"></stop>
          </linearGradient>
        </defs>
        <g></g>
        <g></g>
        <g></g>
        <g></g>
        <g></g>
        <g></g>
        <g>
          <path d="M48,59.4c2,0,4-1.4,4-3.9h-2c0,1.4-1.1,1.9-2,1.9c-0.5,0-1-0.2-1.4-0.5C46.2,56.5,46,56,46,55.4h-2c0,1.5,0.7,2.4,1.3,3   C46,59,47,59.4,48,59.4z" stroke="none" fill="url('#linearGradientSkanogvoj2m')" style=""></path>
        </g>
      </svg>
    </g>
    <g transform="matrix(2.3331,0,0,2.3331,532.6678,118.3378)">
      <svg width="49.80969953757205" height="40.23139268545979" viewBox="9.490300462427946,53.899999999999984,49.80969953757205,40.23139268545979">
        <defs>
          <linearGradient x1="0" y1="0.5" x2="1" y2="0.5" id="linearGradientSkanogvoj2s">
            <stop offset="0%" stop-color="#7e7e7e"></stop>
            <stop offset="100%" stop-color="#7e7e7e"></stop>
          </linearGradient>
        </defs>
        <g></g>
        <g></g>
        <g></g>
        <g></g>
        <g></g>
        <g></g>
        <g>
          <path d="M54.3,78.1l-3.6,1.8c0,0,0,0-0.1,0.1l0,0c-2.4,1-5,1.6-7.6,2c-3.6,0.5-7.4,0.2-10.4-0.7c-2.1-0.6-4.2-1.7-6.2-3.1   c-0.7-0.5-1.3-1-1.8-1.5c2.1,1.5,4.5,2.6,7,3.3l2.1,0.6l-1-2c-1.9-4-4.2-7.8-6.8-11.3c-2.2-3-5.4-7.3-9.3-8.4   c-1.7,3.4-2.4,7.4-2,11.4C15.9,81.8,26.4,90.3,38,89C45.2,88.3,51.1,84,54.3,78.1z M37.8,87c-10.5,1.1-20-6.5-21.1-17   c-0.3-3,0.1-5.8,1-8.4c2.8,1.9,4.8,4.4,6.6,6.8c2,2.8,3.9,5.8,5.5,8.9c-3-1.2-5.7-3.2-7.8-5.7l-2.2-2.6l0.4,3.4   c0.2,1.3,0.3,2.4,1.1,3.6c0.9,1.3,2.1,2.5,3.8,3.8c2.2,1.6,4.5,2.7,6.8,3.4c3.2,0.9,6.9,1.2,10.6,0.8c0.2,0,0.5-0.1,0.7-0.1   c1.4-0.2,2.8-0.5,4.1-0.8C44.7,85.2,41.5,86.6,37.8,87z" stroke="none" fill="url('#linearGradientSkanogvoj2s')" style=""></path>
        </g>
      </svg>
    </g>
    <g transform="matrix(2.3331,0,0,2.3331,569.3347,0.3371)">
      <svg width="51.90046797166512" height="34.147779341691304" viewBox="25.599999999999998,3.254580288214438,51.90046797166512,34.147779341691304">
        <defs>
          <linearGradient x1="0" y1="0.5" x2="1" y2="0.5" id="linearGradientSkanogvoj2y">
            <stop offset="0%" stop-color="#7e7e7e"></stop>
            <stop offset="100%" stop-color="#7e7e7e"></stop>
          </linearGradient>
        </defs>
        <g></g>
        <g></g>
        <g></g>
        <g></g>
        <g></g>
        <g></g>
        <g>
          <path d="M33.5,22.6L33.5,22.6c2-1.6,4.3-3.1,6.6-4.2c3.3-1.5,7-2.5,10.1-2.6c2.2-0.1,4.5,0.3,6.9,1.1c0.8,0.3,1.5,0.6,2.2,0.9   c-2.5-0.8-5.1-1.1-7.6-1l-2.2,0.1l1.5,1.6c3.1,3.2,6.4,6.1,9.9,8.7c3,2.2,7.3,5.3,11.4,5.2c0.5-3.8,0.1-7.8-1.6-11.5   C66,10.2,53.5,5.3,42.8,10.1c-6.6,2.9-10.9,8.8-12.2,15.4L33.5,22.6C33.5,22.6,33.5,22.6,33.5,22.6z M43.6,12   c9.7-4.3,21,0.1,25.3,9.7c1.2,2.7,1.7,5.6,1.6,8.4c-3.2-0.9-5.9-2.7-8.3-4.5c-2.8-2.1-5.5-4.3-8-6.8c3.3,0.2,6.4,1.3,9.2,3l2.9,1.8   l-1.5-3.1c-0.6-1.2-1-2.2-2.2-3.1c-1.3-1-2.8-1.8-4.8-2.4c-2.6-0.8-5.1-1.2-7.5-1.2c-3.3,0.1-6.9,1-10.3,2.5   c-0.2,0.1-0.4,0.2-0.6,0.3c-1.3,0.6-2.5,1.3-3.7,2C37.5,15.8,40.2,13.4,43.6,12z" stroke="none" fill="url('#linearGradientSkanogvoj2y')" style=""></path>
        </g>
      </svg>
    </g>
    <g transform="matrix(2.3331,0,0,2.3331,608.5006,114.3385)">
      <svg width="44.968763765028264" height="46.47513792733649" viewBox="42.399999999999984,52.3,44.968763765028264,46.47513792733649">
        <defs>
          <linearGradient x1="0" y1="0.5" x2="1" y2="0.5" id="linearGradientSkanogvoj34">
            <stop offset="0%" stop-color="#7e7e7e"></stop>
            <stop offset="100%" stop-color="#7e7e7e"></stop>
          </linearGradient>
        </defs>
        <g></g>
        <g></g>
        <g></g>
        <g></g>
        <g></g>
        <g></g>
        <g>
          <path d="M81.7,67.3c-1-4-3.1-7.4-5.9-10c-3.2,2.5-4.7,7.6-5.7,11.1c-1.1,4.2-1.9,8.6-2.4,13l-0.2,2.2l1.8-1.3   c2.1-1.5,3.9-3.4,5.4-5.5c-0.3,0.6-0.7,1.3-1.2,2c-1.4,2.1-3,3.8-4.7,5.1c-2.5,1.9-6,3.5-9.5,4.3c-2.6,0.6-5.2,0.9-7.8,0.8l0,0   c0,0,0,0-0.1,0l-4-0.4c5.1,4.4,12.1,6.3,19.1,4.5C77.8,90.2,84.6,78.6,81.7,67.3z M65.9,91.1c-3.6,0.9-7.1,0.7-10.4-0.3   c1.4-0.1,2.8-0.4,4.2-0.7c0.2-0.1,0.5-0.1,0.7-0.2c3.6-0.9,7-2.5,9.6-4.5c1.9-1.4,3.7-3.3,5.2-5.6c1.2-1.8,1.9-3.3,2.3-4.9   c0.4-1.5,0.1-2.5-0.2-3.8l-0.8-3.4l-1.1,3.2c-1.1,3.1-2.9,5.9-5.3,8.1c0.4-3.5,1.1-6.9,2-10.3c0.8-2.9,1.8-6,3.8-8.7   c1.8,2.1,3.2,4.7,3.9,7.5C82.3,78,76.2,88.5,65.9,91.1z" stroke="none" fill="url('#linearGradientSkanogvoj34')" style=""></path>
        </g>
      </svg>
    </g>
    <g transform="matrix(0.6648,0,0,0.6533,256.0168,32.615)">
      <svg width="402.9296875" height="202" style="overflow: visible;">
        <defs>
          <linearGradient x1="0" y1="0.5" x2="1" y2="0.5" id="linearGradientSkanogvoj3c">
            <stop offset="0%" stop-color="#e78200"></stop>
            <stop offset="100%" stop-color="#e78200"></stop>
          </linearGradient>
        </defs>
        <g transform="matrix(1,0,0,1,0,106.5)">
          <path d="M 39.06-25.63L 39.06-25.63Q 44.53-25.63  48.39-25.46Q 52.25-25.29  54.86-24.88Q 57.47-24.46  58.98-23.83Q 60.5-23.19  61.28-21.95Q 62.06-20.7  62.28-19.46Q 62.5-18.21  62.5-16.6L 62.5-16.6Q 62.5-14.84  62.28-13.4Q 62.06-11.96  61.23-10.79Q 60.4-9.62  58.79-8.79Q 57.18-7.96  54.39-7.37Q 51.61-6.79  47.49-6.52Q 43.36-6.25  37.5-6.25L 37.5-6.25Q 31.05-6.25  26.83-6.62Q 22.61-6.98  20.12-8.01Q 17.63-9.03  16.63-10.86Q 15.63-12.7  15.63-15.63L 15.63-15.63L 6.25-15.63Q 6.25-11.18  7.84-8.11Q 9.42-5.03  13.09-3.1Q 16.75-1.17  22.73-0.29Q 28.71 0.59  37.5 0.59L 37.5 0.59Q 44.53 0.59  49.83 0.17Q 55.13-0.24  58.94-1.1Q 62.74-1.95  65.26-3.34Q 67.77-4.74  69.24-6.67Q 70.7-8.59  71.29-11.11Q 71.88-13.62  71.88-16.8L 71.88-16.8Q 71.88-19.97  71.29-22.39Q 70.7-24.8  69.26-26.59Q 67.82-28.37  65.43-29.88Q 63.04-31.4  59.38-32.13Q 55.71-32.86  50.71-33.15Q 45.7-33.45  39.06-33.45L 39.06-33.45Q 33.59-33.45  29.74-33.47Q 25.88-33.5  23.27-33.76Q 20.65-34.03  19.14-34.57Q 17.63-35.11  16.85-36.13Q 16.06-37.16  15.84-38.75Q 15.63-40.33  15.63-41.99L 15.63-41.99Q 15.63-44.82  16.89-46.44Q 18.16-48.05  21.09-48.83Q 24.02-49.61  28.81-49.8Q 33.59-50  40.63-50L 40.63-50Q 47.07-50  51.29-49.63Q 55.52-49.27  58.01-48.32Q 60.5-47.36  61.5-45.7Q 62.5-44.04  62.5-41.41L 62.5-41.41L 71.88-41.41Q 71.88-45.65  70.46-48.73Q 69.04-51.81  65.5-53.83Q 61.96-55.86  55.93-56.84Q 49.9-57.81  40.63-57.81L 40.63-57.81Q 31.25-57.81  24.71-56.98Q 18.16-56.15  14.06-54.27Q 9.96-52.39  8.11-49.39Q 6.25-46.39  6.25-41.99L 6.25-41.99Q 6.25-38.77  6.84-36.01Q 7.42-33.25  8.84-31.37Q 10.25-29.49  12.67-28.37Q 15.09-27.25  18.73-26.64Q 22.36-26.03  27.39-25.83Q 32.42-25.63  39.06-25.63ZM 82.81500000000001-28.03L 82.81500000000001-28.03Q 82.81500000000001-33.89  83.39500000000001-38.38Q 83.98500000000001-42.87  85.47500000000001-46.19Q 86.96500000000002-49.51  89.47500000000001-51.73Q 91.99500000000002-53.96  95.82500000000002-55.32Q 99.65500000000002-56.69  104.93500000000002-57.28Q 110.20500000000001-57.86  117.23500000000001-57.86L 117.23500000000001-57.86Q 126.61500000000001-57.86  132.66500000000002-56.71Q 138.72500000000002-55.57  142.235-53.2Q 145.755-50.83  147.115-47.19Q 148.485-43.55  148.485-38.53L 148.485-38.53L 139.115-38.53Q 139.115-40.33  139.01500000000001-41.89Q 138.91500000000002-43.46  138.305-44.73Q 137.69500000000002-46  136.375-47Q 135.055-48  132.615-48.68Q 130.175-49.37  126.44500000000002-49.71Q 122.70500000000001-50.05  117.23500000000001-50.05L 117.23500000000001-50.05Q 110.98500000000001-50.05  106.71500000000002-49.61Q 102.44500000000002-49.17  99.65500000000002-48.17Q 96.87500000000001-47.17  95.36500000000001-45.48Q 93.84500000000001-43.8  93.16500000000002-41.36Q 92.48500000000001-38.92  92.35500000000002-35.62Q 92.23500000000001-32.32  92.23500000000001-28.03L 92.23500000000001-28.03Q 92.23500000000001-23.83  92.35500000000002-20.58Q 92.48500000000001-17.33  93.16500000000002-14.92Q 93.84500000000001-12.5  95.36500000000001-10.84Q 96.87500000000001-9.18  99.65500000000002-8.15Q 102.44500000000002-7.13  106.71500000000002-6.69Q 110.98500000000001-6.25  117.23500000000001-6.25L 117.23500000000001-6.25Q 122.70500000000001-6.25  126.44500000000002-6.64Q 130.175-7.03  132.615-7.76Q 135.055-8.5  136.375-9.57Q 137.69500000000002-10.64  138.305-12.04Q 138.91500000000002-13.43  139.01500000000001-15.11Q 139.115-16.8  139.115-18.75L 139.115-18.75L 148.485-18.75Q 148.485-13.62  147.115-9.86Q 145.755-6.1  142.235-3.69Q 138.72500000000002-1.27  132.66500000000002-0.1Q 126.61500000000001 1.07  117.23500000000001 1.07L 117.23500000000001 1.07Q 110.20500000000001 1.07  104.93500000000002 0.49Q 99.65500000000002-0.1  95.82500000000002-1.44Q 91.99500000000002-2.78  89.47500000000001-4.98Q 86.96500000000002-7.18  85.47500000000001-10.4Q 83.98500000000001-13.62  83.39500000000001-17.99Q 82.81500000000001-22.36  82.81500000000001-28.03ZM 216.99632812500002 0L 216.99632812500002-7.71Q 216.846328125-7.13  214.79632812500003-4.79L 214.79632812500003-4.79Q 213.32632812500003-3.03  210.88632812500003-1.68Q 208.44632812500004-0.34  204.36632812500002 0.42Q 200.29632812500003 1.17  193.65632812500002 1.17L 193.65632812500002 1.17Q 184.81632812500004 1.17  178.56632812500004 0.27Q 172.31632812500004-0.63  168.35632812500003-2.51Q 164.40632812500002-4.39  162.57632812500003-7.32Q 160.74632812500002-10.25  160.74632812500002-14.31L 160.74632812500002-14.31Q 160.74632812500002-18.55  161.74632812500002-21.51Q 162.74632812500002-24.46  164.67632812500003-26.46Q 166.60632812500003-28.47  169.33632812500002-29.59Q 172.06632812500004-30.71  175.56632812500004-31.3Q 179.05632812500002-31.88  183.20632812500003-32.03Q 187.35632812500003-32.18  192.036328125-32.18L 192.036328125-32.18Q 198.72632812500004-32.18  203.22632812500004-31.62Q 207.71632812500002-31.05  210.56632812500004-30.2Q 213.42632812500003-29.35  214.89632812500003-28.37Q 216.35632812500003-27.39  216.99632812500002-26.56L 216.99632812500002-26.56Q 216.99632812500002-32.03  216.52632812500002-35.89Q 216.06632812500004-39.75  215.01632812500003-42.33Q 213.96632812500002-44.92  212.30632812500002-46.46Q 210.64632812500003-48  208.22632812500004-48.78Q 205.80632812500002-49.56  202.58632812500002-49.78Q 199.36632812500002-50  195.21632812500002-50L 195.21632812500002-50Q 188.76632812500003-50  184.52632812500002-49.68Q 180.27632812500002-49.37  177.78632812500004-48.44Q 175.29632812500003-47.51  174.26632812500003-45.87Q 173.24632812500002-44.24  173.24632812500002-41.6L 173.24632812500002-41.6L 163.86632812500002-41.6Q 163.86632812500002-46.04  165.45632812500003-49.12Q 167.03632812500004-52.2  170.72632812500004-54.13Q 174.41632812500004-56.05  180.41632812500004-56.93Q 186.42632812500003-57.81  195.21632812500002-57.81L 195.21632812500002-57.81Q 203.80632812500002-57.81  209.76632812500003-56.4Q 215.72632812500004-54.98  219.40632812500002-51.42Q 223.096328125-47.85  224.73632812500003-41.82Q 226.36632812500002-35.79  226.36632812500002-26.56L 226.36632812500002-26.56L 226.36632812500002 0L 216.99632812500002 0ZM 195.21632812500002-6.25L 195.21632812500002-6.25Q 201.41632812500004-6.25  205.58632812500002-6.84Q 209.76632812500003-7.42  212.30632812500002-8.59Q 214.846328125-9.77  215.91632812500004-11.52Q 216.99632812500002-13.28  216.99632812500002-15.63L 216.99632812500002-15.63Q 216.99632812500002-17.97  215.74632812500002-19.6Q 214.50632812500004-21.24  211.596328125-22.27Q 208.69632812500004-23.29  203.90632812500002-23.75Q 199.11632812500002-24.22  192.08632812500002-24.22L 192.08632812500002-24.22Q 185.05632812500002-24.22  180.73632812500003-23.97Q 176.41632812500004-23.73  174.07632812500003-22.85Q 171.72632812500004-21.97  170.92632812500003-20.26Q 170.11632812500002-18.55  170.11632812500002-15.63L 170.11632812500002-15.63Q 170.11632812500002-12.7  170.97632812500004-10.86Q 171.82632812500003-9.03  174.46632812500002-8.01Q 177.096328125-6.98  182.05632812500002-6.62Q 187.01632812500003-6.25  195.21632812500002-6.25ZM 241.99718749999997 0L 241.99718749999997-56.25L 251.36718749999997-56.25L 251.36718749999997 0L 241.99718749999997 0ZM 251.36718749999997-75L 251.36718749999997-65.63L 241.99718749999997-65.63L 241.99718749999997-75L 251.36718749999997-75ZM 323.24218749999994-37.94L 315.43218749999994-37.94Q 315.43218749999994-41.46  314.91218749999996-43.77Q 314.40218749999997-46.09  312.50218749999993-47.49Q 310.59218749999997-48.88  306.86218749999995-49.44Q 303.12218749999994-50  296.68218749999994-50L 296.68218749999994-50Q 290.38218749999993-50  286.42218749999995-48.9Q 282.47218749999996-47.8  280.22218749999996-45.8Q 277.98218749999995-43.8  277.17218749999995-41.02Q 276.37218749999994-38.23  276.37218749999994-34.81L 276.37218749999994-34.81L 276.37218749999994 0L 266.99218749999994 0L 266.99218749999994-56.25L 276.37218749999994-56.25L 276.37218749999994-47.31Q 276.85218749999996-48.83  278.17218749999995-50.66Q 279.49218749999994-52.49  282.18218749999994-54.08Q 284.86218749999995-55.66  289.13218749999993-56.74Q 293.41218749999996-57.81  299.80218749999995-57.81L 299.80218749999995-57.81Q 307.13218749999993-57.81  311.72218749999996-56.52Q 316.31218749999994-55.22  318.87218749999994-52.71Q 321.43218749999994-50.2  322.34218749999997-46.48Q 323.24218749999994-42.77  323.24218749999994-37.94L 323.24218749999994-37.94ZM 363.87218749999994-57.81L 363.87218749999994-57.81Q 373.24218749999994-57.81  379.78218749999996-56.4Q 386.3321874999999-54.98  390.43218749999994-51.56Q 394.53218749999996-48.14  396.38218749999993-42.41Q 398.24218749999994-36.67  398.24218749999994-28.03L 398.24218749999994-28.03Q 398.24218749999994-19.53  396.38218749999993-13.92Q 394.53218749999996-8.3  390.43218749999994-4.98Q 386.3321874999999-1.66  379.78218749999996-0.29Q 373.24218749999994 1.07  363.87218749999994 1.07L 363.87218749999994 1.07Q 357.18218749999994 1.07  352.68218749999994 0.34Q 348.19218749999993-0.39  345.3321874999999-1.49Q 342.48218749999995-2.59  340.99218749999994-3.86Q 339.50218749999993-5.13  338.87218749999994-6.25L 338.87218749999994-6.25L 338.87218749999994 18.75L 329.49218749999994 18.75L 329.49218749999994-56.25L 338.87218749999994-56.25L 338.87218749999994-51.03Q 339.50218749999993-52  340.99218749999994-53.2Q 342.48218749999995-54.39  345.3321874999999-55.42Q 348.19218749999993-56.45  352.68218749999994-57.13Q 357.18218749999994-57.81  363.87218749999994-57.81ZM 363.87218749999994-50L 363.87218749999994-50Q 359.18218749999994-50  355.5221875-49.76Q 351.85218749999996-49.51  349.0721874999999-48.75Q 346.29218749999995-48  344.36218749999995-46.56Q 342.43218749999994-45.12  341.2121874999999-42.7Q 339.99218749999994-40.28  339.43218749999994-36.72Q 338.87218749999994-33.15  338.87218749999994-28.17L 338.87218749999994-28.17Q 338.87218749999994-23.14  339.43218749999994-19.53Q 339.99218749999994-15.92  341.2121874999999-13.5Q 342.43218749999994-11.08  344.36218749999995-9.64Q 346.29218749999995-8.2  349.0721874999999-7.45Q 351.85218749999996-6.69  355.5221875-6.47Q 359.18218749999994-6.25  363.87218749999994-6.25L 363.87218749999994-6.25Q 369.3321874999999-6.25  373.31218749999994-6.59Q 377.29218749999995-6.93  380.0821874999999-7.81Q 382.86218749999995-8.69  384.59218749999997-10.25Q 386.3321874999999-11.82  387.28218749999996-14.23Q 388.23218749999995-16.65  388.55218749999995-20.04Q 388.87218749999994-23.44  388.87218749999994-28.03L 388.87218749999994-28.03Q 388.87218749999994-32.62  388.55218749999995-36.04Q 388.23218749999995-39.45  387.28218749999996-41.89Q 386.3321874999999-44.34  384.59218749999997-45.9Q 382.86218749999995-47.46  380.0821874999999-48.39Q 377.29218749999995-49.32  373.31218749999994-49.66Q 369.3321874999999-50  363.87218749999994-50Z" data-textpath="scairp" data-text-anchor="middle" data-font-size="100" data-letterspacing="0" data-side="left" data-offset="0.5" data-dx="0" data-dy="0" data-xmlspace="preserve" data-href="" data-font="Michroma" data-font-src="/Content/clientfonts/michroma.woff" data-font-scale="contain" transform="translate(0,0)" data-x="0" data-y="0" fill="url('#linearGradientSkanogvoj3c')"></path>
        </g>
      </svg>
    </g>
  </g>
</svg>